<?xml version="1.0" encoding="UTF-8" standalone="no"?>
<!-- Created with Inkscape (http://www.inkscape.org/) -->

<svg
   xmlns:dc="http://purl.org/dc/elements/1.1/"
   xmlns:cc="http://creativecommons.org/ns#"
   xmlns:rdf="http://www.w3.org/1999/02/22-rdf-syntax-ns#"
   xmlns:svg="http://www.w3.org/2000/svg"
   xmlns="http://www.w3.org/2000/svg"
   xmlns:sodipodi="http://sodipodi.sourceforge.net/DTD/sodipodi-0.dtd"
   xmlns:inkscape="http://www.inkscape.org/namespaces/inkscape"
   width="15.969494mm"
   height="58.208332mm"
   viewBox="0 0 15.969494 58.208332"
   preserveAspectRatio="none"
   version="1.1"
   id="svg840"
   inkscape:version="0.92.4 (5da689c313, 2019-01-14)"
   sodipodi:docname="dragger.svg">
  <defs
     id="defs834" />
  <sodipodi:namedview
     id="base"
     pagecolor="#ffffff"
     bordercolor="#666666"
     borderopacity="1.0"
     inkscape:pageopacity="0.0"
     inkscape:pageshadow="2"
     inkscape:zoom="1.4"
     inkscape:cx="-37.222234"
     inkscape:cy="121.4454"
     inkscape:document-units="mm"
     inkscape:current-layer="layer1"
     showgrid="false"
     inkscape:snap-global="false"
     inkscape:window-width="1920"
     inkscape:window-height="1018"
     inkscape:window-x="-9"
     inkscape:window-y="-9"
     inkscape:window-maximized="1" />
  <metadata
     id="metadata837">
    <rdf:RDF>
      <cc:Work
         rdf:about="">
        <dc:format>image/svg+xml</dc:format>
        <dc:type
           rdf:resource="http://purl.org/dc/dcmitype/StillImage" />
        <dc:title></dc:title>
      </cc:Work>
    </rdf:RDF>
  </metadata>
  <g
     inkscape:label="Layer 1"
     inkscape:groupmode="layer"
     id="layer1"
     transform="translate(-38.411835,-36.527157)">
    <path
       style="fill:#fff500;fill-opacity:0.98630138;stroke:none;stroke-width:0.26458332px;stroke-linecap:butt;stroke-linejoin:miter;stroke-opacity:1"
       d="m 39.695033,37.152832 7.174017,0.461005 5.197176,-1.08668 1.937127,4.582961 -1.842635,18.379093 2.220611,12.047992 -1.937129,12.18973 0.377968,9.354911 -7.323283,1.653645 -2.834824,-3.165549 -4.063236,-0.09449 1.511897,-11.150298 -1.700887,-8.315475 1.086675,-8.504465 0.47247,-7.087055 -1.511898,-5.622396 z"
       id="path1385-1"
       inkscape:connector-curvature="0"
       sodipodi:nodetypes="ccccccccccccccccc" />
    <path
       style="fill:#00fff3;fill-opacity:1;stroke:none;stroke-width:0.26458332px;stroke-linecap:butt;stroke-linejoin:miter;stroke-opacity:1"
       d="m 41.577381,37.330356 5.858629,1.700892 4.346729,-1.511903 1.889879,3.779761 -2.078869,14.363096 2.078869,18.520833 -2.078869,9.449403 1.133928,8.315476 -6.425594,2.645833 -3.212799,-3.77976 -4.157736,-1.700893 2.267857,-8.88244 -2.456846,-6.425594 1.322916,-10.205358 3.023809,-9.449406 -4.346725,-2.267857 z"
       id="path1385"
       inkscape:connector-curvature="0" />
    <path
       style="fill:#fff500;fill-opacity:0.98630138;stroke:none;stroke-width:0.26458332px;stroke-linecap:butt;stroke-linejoin:miter;stroke-opacity:1"
       d="m 43.508148,63.654368 4.009043,0.601358 2.00452,-0.668173 -2.873147,0.133633 z"
       id="path1402"
       inkscape:connector-curvature="0" />
    <path
       style="fill:#fff500;fill-opacity:0.98630138;stroke:none;stroke-width:0.26458332px;stroke-linecap:butt;stroke-linejoin:miter;stroke-opacity:1"
       d="m 43.726243,61.044895 3.407688,-0.334087 2.00452,0.133636 0.668174,0.46772 h -1.670434 l -1.536801,-0.133633 -0.601355,0.400904 z"
       id="path1404"
       inkscape:connector-curvature="0" />
    <path
       style="fill:#fff500;fill-opacity:0.98630138;stroke:none;stroke-width:0.26458332px;stroke-linecap:butt;stroke-linejoin:miter;stroke-opacity:1"
       d="m 44.342381,66.194583 0.133635,0.734989 1.336347,-0.133633 1.403165,0.200451 2.271792,-0.334087 -0.534541,-0.801809 -1.00226,0.400904 -0.868627,0.06682 -1.937702,-0.267269 z"
       id="path1406"
       inkscape:connector-curvature="0" />
  </g>
</svg>
