<?xml version="1.0" encoding="UTF-8" standalone="no"?>
<!-- Created with Inkscape (http://www.inkscape.org/) -->

<svg
   xmlns:dc="http://purl.org/dc/elements/1.1/"
   xmlns:cc="http://creativecommons.org/ns#"
   xmlns:rdf="http://www.w3.org/1999/02/22-rdf-syntax-ns#"
   xmlns:svg="http://www.w3.org/2000/svg"
   xmlns="http://www.w3.org/2000/svg"
   xmlns:sodipodi="http://sodipodi.sourceforge.net/DTD/sodipodi-0.dtd"
   xmlns:inkscape="http://www.inkscape.org/namespaces/inkscape"
   width="71.725731mm"
   height="40.327019mm"
   viewBox="0 0 71.72573 40.327019"
   preserveAspectRatio="none"
   version="1.1"
   id="svg8"
   inkscape:version="0.92.4 (5da689c313, 2019-01-14)"
   sodipodi:docname="menu-option-1.svg">
  <defs
     id="defs2" />
  <sodipodi:namedview
     id="base"
     pagecolor="#ffffff"
     bordercolor="#666666"
     borderopacity="1.0"
     inkscape:pageopacity="0.0"
     inkscape:pageshadow="2"
     inkscape:zoom="2.8"
     inkscape:cx="91.175878"
     inkscape:cy="84.835946"
     inkscape:document-units="mm"
     inkscape:current-layer="layer1"
     showgrid="false"
     inkscape:snap-nodes="true"
     inkscape:snap-others="false"
     inkscape:snap-global="false"
     inkscape:window-width="1920"
     inkscape:window-height="1018"
     inkscape:window-x="-9"
     inkscape:window-y="-9"
     inkscape:window-maximized="1" />
  <metadata
     id="metadata5">
    <rdf:RDF>
      <cc:Work
         rdf:about="">
        <dc:format>image/svg+xml</dc:format>
        <dc:type
           rdf:resource="http://purl.org/dc/dcmitype/StillImage" />
        <dc:title></dc:title>
      </cc:Work>
    </rdf:RDF>
  </metadata>
  <g
     inkscape:label="Layer 1"
     inkscape:groupmode="layer"
     id="layer1"
     transform="translate(10.918569,-105.20458)">
    <path
       style="fill:#00fff3;fill-opacity:0.99657533;stroke:none;stroke-width:0.26458332px;stroke-linecap:butt;stroke-linejoin:miter;stroke-opacity:0.99657533"
       d="m -1.8758029,105.97675 13.6826429,-0.10498 5.655227,0.58317 3.962851,-0.77789 12.645174,0.56123 7.193011,0.11071 7.907856,0.12216 11.038777,-0.28822 0.502929,3.15744 -0.09924,8.57129 0.193736,8.43764 -0.560249,5.70879 0.35505,5.59415 -0.456259,7.65795 -11.366961,-0.40566 -5.444297,0.47722 -12.103919,-0.13838 -7.748514,0.28823 -10.013586,-0.78837 -6.5647931,0.67767 -9.7463181,-1.08333 -7.2894718,0.61086 -0.786412,-6.57545 0.855195,-4.74764 -0.09449,-7.08705 0.7559532,-9.54391 -0.9449412,-5.19716 0.344568,-6.59264 z"
       id="path853-4"
       inkscape:connector-curvature="0"
       sodipodi:nodetypes="ccccccccccccccccccccccccccccc" />
    <path
       style="fill:#ff0000;fill-opacity:0.99657533;stroke:none;stroke-width:0.26458332px;stroke-linecap:butt;stroke-linejoin:miter;stroke-opacity:0.99657533"
       d="m -1.8423955,106.41106 11.8117557,-0.47247 7.5595238,0.85044 7.370536,-0.94494 9.638394,0.66146 6.992558,0.37798 8.976935,0.18898 8.031992,-0.75595 2.173365,3.02381 -0.566966,8.50447 0.661459,8.50446 -1.228423,5.57515 0.755954,7.46503 -0.188989,5.38616 -11.433779,-0.47248 -7.181548,0.94495 -10.299851,-0.47247 -7.748512,0.75595 -8.40997,-1.32291 -9.638393,0.94494 -8.4099702,-1.41742 -5.9531248,0.94495 -1.795387,-7.18155 1.1339286,-3.96876 -0.2834822,-9.82737 1.1339285,-4.25224 -1.1339285,-7.843 0.5669645,-6.3311 z"
       id="path853"
       inkscape:connector-curvature="0"
       sodipodi:nodetypes="ccccccccccccccccccccccccccccc" />
  </g>
</svg>
